<?xml version="1.0" standalone="no"?>
<!DOCTYPE svg PUBLIC "-//W3C//DTD SVG 20010904//EN"
 "http://www.w3.org/TR/2001/REC-SVG-20010904/DTD/svg10.dtd">
<svg version="1.0" xmlns="http://www.w3.org/2000/svg"
 width="546.000000pt" height="457.000000pt" viewBox="0 0 546.000000 457.000000"
 preserveAspectRatio="xMidYMid meet">

<g transform="translate(0.000000,457.000000) scale(0.100000,-0.100000)"
fill="#000000" stroke="none">
<path d="M763 4489 c-78 -14 -154 -88 -184 -176 -9 -28 -14 -32 -37 -28 -66
12 90 -30 398 -106 184 -45 341 -84 350 -86 14 -4 16 3 9 57 -17 149 -133 272
-311 329 -46 15 -168 20 -225 10z m-14 -38 c-36 -30 -99 -135 -99 -165 0 -17
-26 -21 -49 -7 -20 13 30 113 75 149 27 22 79 47 104 51 2 1 -11 -12 -31 -28z
m288 -15 c54 -25 113 -70 106 -82 -2 -2 0 -3 5 -1 4 1 6 6 4 11 -2 5 15 -8 37
-29 25 -24 37 -43 33 -53 -3 -10 -1 -13 6 -8 7 4 12 5 12 2 0 -2 3 -13 7 -23
6 -15 4 -16 -9 -6 -8 7 -18 10 -21 6 -4 -3 -7 1 -7 10 0 9 -8 17 -17 17 -17 1
-17 1 0 11 16 10 16 12 -9 31 -16 13 -29 17 -32 11 -4 -6 -14 -13 -22 -16 -10
-4 -8 -6 8 -6 12 -1 22 -6 22 -12 0 -6 -25 -10 -62 -10 -35 0 -74 0 -88 0 -35
-2 -132 10 -138 16 -3 3 2 5 12 5 9 0 14 5 11 10 -6 10 22 7 64 -6 7 -2 20 1
27 7 9 7 14 8 14 1 0 -6 -5 -12 -12 -14 -6 -2 20 -4 58 -4 l69 0 -50 12 c-27
7 -43 13 -35 14 27 4 35 6 53 14 11 5 23 3 34 -5 14 -12 16 -12 11 1 -3 10
-17 15 -41 14 -31 -1 -34 1 -21 13 8 9 23 12 36 8 22 -6 22 -6 -2 14 -26 21
-45 28 -36 12 3 -5 -2 -15 -11 -22 -14 -12 -15 -11 -9 7 6 21 -18 54 -31 41
-3 -4 -12 1 -19 11 -25 34 -164 12 -197 -32 -6 -7 -7 -4 -3 7 3 10 2 15 -3 12
-5 -3 -12 -1 -16 5 -3 5 -4 10 -1 10 2 0 12 3 22 7 13 5 15 3 9 -7 -6 -10 -4
-12 9 -7 10 4 21 7 24 7 4 0 0 5 -8 11 -12 8 -10 9 7 4 12 -3 24 -1 28 6 12
19 104 5 172 -25z m-68 4 c11 0 11 -3 1 -15 -7 -8 -18 -15 -24 -15 -6 0 -5 4
3 9 10 6 6 11 -15 20 -25 10 -26 11 -4 6 14 -2 31 -5 39 -5z m-54 -10 c17 -7
15 -8 -10 -7 -16 1 -41 -2 -55 -6 -20 -5 -19 -4 5 8 35 16 34 16 60 5z m-135
-20 c0 -5 -2 -10 -4 -10 -3 0 -8 5 -11 10 -3 6 -1 10 4 10 6 0 11 -4 11 -10z
m100 -20 c0 -11 -4 -20 -10 -20 -5 0 -10 9 -10 20 0 11 5 20 10 20 6 0 10 -9
10 -20z m-145 -24 c-23 -35 -2 -33 25 2 21 26 21 21 2 -28 -5 -13 -3 -13 11
-2 8 8 18 21 20 30 2 9 3 5 1 -10 -3 -24 0 -28 21 -28 13 0 27 -5 31 -11 4 -8
-3 -9 -22 -5 -73 14 -110 20 -116 18 -13 -3 -9 9 13 40 26 35 38 30 14 -6z
m441 -101 c36 -18 24 -18 -41 0 -43 12 -46 14 -19 14 18 1 45 -6 60 -14z"/>
<path d="M1080 4330 c0 -5 7 -10 15 -10 8 0 15 5 15 10 0 6 -7 10 -15 10 -8 0
-15 -4 -15 -10z"/>
<path d="M275 4291 c-120 -69 -194 -252 -183 -451 9 -160 81 -267 194 -290 30
-6 54 -13 54 -14 0 -2 -15 -19 -33 -38 -59 -63 -82 -178 -53 -261 19 -52 42
-75 87 -87 34 -9 40 -8 67 17 37 36 72 87 72 106 0 8 7 20 15 27 13 11 14 10
9 -6 -7 -18 -6 -18 12 -3 53 43 104 48 222 22 42 -9 87 -17 99 -17 11 -1 20
-3 18 -6 -4 -6 57 -21 365 -90 124 -28 273 -62 332 -76 59 -15 115 -24 123
-20 9 3 14 2 11 -2 -4 -7 337 -90 559 -135 97 -20 102 -22 148 -70 l49 -50
-25 -25 c-19 -18 -40 -26 -83 -31 l-59 -6 50 -51 c74 -74 132 -97 391 -157
196 -45 240 -59 291 -90 79 -48 170 -138 181 -178 5 -21 0 -84 -15 -183 -26
-179 -28 -267 -8 -373 39 -204 171 -334 386 -379 122 -26 250 -4 369 63 27 15
53 24 57 19 4 -4 9 -130 11 -279 3 -297 3 -301 -67 -572 -41 -157 -49 -244
-27 -318 47 -162 200 -209 681 -209 253 0 411 12 543 43 79 18 165 51 199 76
75 55 74 99 -10 274 -161 333 -222 554 -252 919 -31 374 -73 588 -144 736 -21
45 -54 97 -74 116 l-35 35 21 69 c17 57 20 98 21 234 1 244 -23 349 -90 391
-19 11 -34 29 -34 39 0 26 75 134 121 173 48 42 49 66 3 106 -30 27 -41 31
-72 25 -65 -11 -156 -59 -209 -111 -58 -57 -56 -57 -96 23 -27 53 -71 98 -108
109 -25 8 -35 0 -22 -17 6 -7 15 -35 22 -62 21 -86 111 -233 133 -219 6 3 8 1
5 -4 -8 -12 62 -79 111 -108 17 -11 32 -23 32 -27 0 -4 6 -8 13 -8 34 0 50
-108 21 -148 -43 -62 -194 -67 -404 -13 -147 38 -163 44 -187 75 -31 39 -41
72 -58 190 -8 60 -25 130 -36 155 -50 113 -222 214 -444 260 -22 5 -103 23
-180 40 -229 52 -335 72 -348 65 -7 -4 -9 -3 -5 1 5 5 -15 16 -43 26 -28 10
-74 33 -102 51 -29 18 -55 32 -60 30 -5 -1 -6 2 -3 7 4 5 -7 25 -24 44 -31 36
-30 47 4 48 12 0 -40 16 -114 35 -74 18 -139 34 -145 34 -20 -1 21 -18 56 -24
52 -9 105 -64 124 -128 18 -60 20 -185 4 -258 -10 -49 -29 -60 -29 -17 0 12
-11 64 -24 116 l-23 94 -7 -50 c-13 -98 -94 -176 -194 -188 -88 -10 -149 0
-447 75 -148 38 -301 75 -340 83 -38 8 -173 43 -300 77 -463 123 -548 154
-611 222 -32 34 -64 112 -64 157 -1 23 -2 24 -11 8 -5 -9 -7 -22 -4 -27 3 -6
2 -10 -2 -10 -5 0 -15 -28 -22 -62 -16 -81 -48 -140 -110 -209 -28 -31 -47
-60 -43 -64 4 -5 2 -5 -5 -2 -15 9 -45 -2 -37 -14 3 -5 -3 -6 -12 -2 -10 4
-15 2 -11 -3 3 -6 -9 -11 -26 -12 l-32 -2 36 20 c81 43 156 165 185 301 31
143 1 305 -72 393 -52 63 -147 74 -229 27z m137 7 c151 -45 198 -350 88 -567
-34 -68 -101 -137 -148 -152 -45 -15 -104 -6 -141 20 -17 12 -45 51 -63 88
-30 61 -33 78 -36 173 -5 122 12 202 61 293 44 84 124 149 191 156 5 1 26 -4
48 -11z m2310 -572 c17 -12 48 -118 48 -163 0 -47 -18 -21 -30 42 -7 36 -23
81 -36 100 -24 36 -15 46 18 21z m-2299 -226 c35 -28 50 -81 45 -154 -13 -157
-132 -236 -188 -125 -46 88 -6 247 70 286 34 17 43 16 73 -7z m2381 5 c15 -8
198 -58 405 -110 207 -53 386 -100 398 -105 12 -5 38 -31 57 -57 38 -51 47
-76 19 -48 -30 31 -93 51 -413 134 -173 45 -328 86 -344 91 -37 13 -47 5 -36
-28 5 -15 11 -58 12 -96 l3 -70 330 -83 c182 -45 349 -83 371 -83 58 0 94 30
94 78 l1 37 16 -30 c23 -43 27 -67 26 -185 0 -119 -5 -170 -15 -164 -3 2 -11
-11 -18 -30 -6 -18 -19 -41 -29 -50 -16 -15 -19 -15 -35 3 -33 37 -106 60
-541 171 -132 34 -248 63 -257 66 -12 4 -22 -5 -32 -28 -8 -18 -29 -57 -46
-86 l-31 -52 23 -9 c13 -4 191 -50 396 -101 206 -51 369 -97 364 -102 -10 -10
-144 -48 -152 -43 -3 2 -46 8 -95 14 -50 6 -145 25 -210 41 -266 68 -510 132
-513 135 -1 1 17 15 40 31 112 78 180 277 195 569 5 98 3 127 -11 159 -23 54
-21 56 28 31z m-2117 -11 c-3 -3 -12 -4 -19 -1 -8 3 -5 6 6 6 11 1 17 -2 13
-5z m2430 -40 c-3 -3 -12 -4 -19 -1 -8 3 -5 6 6 6 11 1 17 -2 13 -5z m-2610
-46 c-3 -8 -6 -5 -6 6 -1 11 2 17 5 13 3 -3 4 -12 1 -19z m560 6 c-3 -3 -12
-4 -19 -1 -8 3 -5 6 6 6 11 1 17 -2 13 -5z m-560 -56 c-3 -7 -5 -2 -5 12 0 14
2 19 5 13 2 -7 2 -19 0 -25z m2433 18 c0 -3 -4 -8 -10 -11 -5 -3 -10 -1 -10 4
0 6 5 11 10 11 6 0 10 -2 10 -4z m69 -22 c2 -2 -7 -4 -22 -4 -14 0 -29 5 -32
10 -6 10 42 4 54 -6z m458 10 c-3 -3 -12 -4 -19 -1 -8 3 -5 6 6 6 11 1 17 -2
13 -5z m-2260 -20 c-3 -3 -12 -4 -19 -1 -8 3 -5 6 6 6 11 1 17 -2 13 -5z
m1780 -10 c-3 -3 -12 -4 -19 -1 -8 3 -5 6 6 6 11 1 17 -2 13 -5z m108 -4 c-3
-5 -14 -10 -23 -9 -14 0 -13 2 3 9 27 11 27 11 20 0z m-146 -40 c3 0 7 -8 7
-18 0 -10 -5 -19 -12 -19 -6 0 -11 18 -11 41 0 23 2 31 4 19 2 -13 8 -23 12
-23z m216 28 c15 1 17 -1 5 -8 -8 -5 -21 -5 -31 1 -11 5 -20 5 -24 0 -3 -5 0
-11 7 -14 7 -2 2 -2 -12 0 -23 3 -23 2 -8 -10 16 -13 16 -15 -8 -26 -33 -15
-44 -6 -18 13 18 14 18 15 -6 24 -14 5 -30 7 -36 5 -7 -2 -15 0 -19 6 -8 14
15 14 49 2 18 -8 28 -6 37 5 7 9 19 12 28 8 9 -4 25 -6 36 -6z m-1542 -15 c-7
-2 -19 -2 -25 0 -7 3 -2 5 12 5 14 0 19 -2 13 -5z m1690 -25 c54 -12 85 -24
80 -29 -6 -6 -24 -3 -46 6 -20 8 -52 15 -71 15 -19 0 -38 5 -41 10 -3 6 -21
10 -38 10 -24 0 -28 3 -17 10 8 5 22 7 30 4 8 -3 55 -15 103 -26z m1072 14
c-3 -3 -11 0 -18 7 -9 10 -8 11 6 5 10 -3 15 -9 12 -12z m-1330 -2 c3 -5 -1
-10 -10 -10 -9 0 -13 5 -10 10 3 6 8 10 10 10 2 0 7 -4 10 -10z m1782 -12 c29
-27 31 -52 4 -43 -11 3 -36 -1 -56 -10 -28 -11 -36 -19 -31 -31 5 -14 4 -15
-8 -5 -12 10 -18 8 -31 -12 -9 -14 -32 -33 -51 -42 -31 -14 -40 -15 -67 -3
-18 7 -35 12 -39 11 -14 -5 0 28 23 53 44 47 155 101 213 103 11 1 30 -9 43
-21z m-2176 -21 c-10 -9 -11 -8 -5 6 3 10 9 15 12 12 3 -3 0 -11 -7 -18z
m1760 6 c13 -16 12 -17 -3 -4 -10 7 -18 15 -18 17 0 8 8 3 21 -13z m-716 -3
c13 -5 14 -9 5 -9 -8 0 -24 4 -35 9 -13 5 -14 9 -5 9 8 0 24 -4 35 -9z m-1848
-6 c-3 -3 -12 -4 -19 -1 -8 3 -5 6 6 6 11 1 17 -2 13 -5z m1493 -14 c43 -23
31 -26 -16 -4 -19 9 -37 14 -41 10 -3 -3 8 -12 25 -19 l32 -13 -35 -13 c-34
-12 -48 -31 -23 -31 6 0 8 -3 5 -6 -4 -4 -13 -2 -20 5 -8 6 -23 9 -33 5 -15
-5 -16 -4 -4 5 21 14 6 25 -18 12 -14 -8 -28 -8 -44 -1 -21 10 -21 10 5 5 16
-3 26 -2 24 3 -7 10 38 10 49 0 4 -5 11 -8 16 -8 12 0 5 23 -12 37 -13 11 -13
12 3 13 9 0 17 5 17 10 0 16 32 11 70 -10z m-1423 4 c-3 -3 -12 -4 -19 -1 -8
3 -5 6 6 6 11 1 17 -2 13 -5z m1503 -4 c-20 -13 -33 -13 -25 0 3 6 14 10 23
10 15 0 15 -2 2 -10z m-350 -10 c0 -5 -4 -10 -9 -10 -6 0 -13 5 -16 10 -3 6 1
10 9 10 9 0 16 -4 16 -10z m438 -5 c17 -4 32 -11 32 -16 0 -6 6 -9 13 -8 28 3
35 -2 34 -28 -2 -26 -13 -43 -29 -43 -15 0 -8 19 10 24 9 3 0 4 -20 3 -44 -3
-41 8 4 18 l33 7 -30 9 c-20 6 -32 5 -38 -4 -6 -8 -7 -6 -3 6 3 10 0 17 -7 17
-7 1 -25 7 -42 15 -16 8 -21 13 -10 11 11 -3 35 -7 53 -11z m-1721 -1 c-3 -3
-12 -4 -19 -1 -8 3 -5 6 6 6 11 1 17 -2 13 -5z m1648 -4 c3 -5 2 -10 -4 -10
-5 0 -13 5 -16 10 -3 6 -2 10 4 10 5 0 13 -4 16 -10z m-739 -12 c4 -7 3 -8 -4
-4 -7 4 -12 3 -12 -3 0 -5 4 -12 9 -15 5 -3 9 -17 9 -32 0 -18 -3 -22 -9 -13
-5 8 -9 22 -9 32 0 11 -5 15 -11 11 -8 -4 -8 0 0 15 13 24 17 25 27 9z m709 2
c3 -5 -1 -10 -9 -10 -9 0 -16 5 -16 10 0 6 4 10 9 10 6 0 13 -4 16 -10z m-5
-36 c0 -9 -28 -3 -46 11 -17 13 -16 14 14 4 17 -6 32 -13 32 -15z m-1380 1 c0
-2 -9 -3 -19 -2 -11 0 -18 5 -15 9 4 6 34 0 34 -7z m1313 -2 c-7 -2 -19 -2
-25 0 -7 3 -2 5 12 5 14 0 19 -2 13 -5z m-1238 -21 c-3 -3 -11 0 -18 7 -9 10
-8 11 6 5 10 -3 15 -9 12 -12z m569 2 c4 -9 4 -19 1 -22 -3 -3 -5 0 -5 6 0 7
-4 12 -9 12 -5 0 -8 -8 -6 -17 1 -10 0 -12 -2 -5 -3 6 -9 12 -13 12 -6 0 -5
-11 0 -26 14 -35 13 -44 -6 -44 -8 0 -12 -5 -9 -11 4 -6 0 -9 -11 -7 -29 5
-32 -68 -5 -94 12 -10 21 -21 21 -25 0 -14 -74 -102 -82 -97 -4 3 -13 -7 -18
-21 -5 -14 -14 -24 -19 -21 -5 4 -11 1 -13 -5 -2 -6 -10 0 -17 14 -12 23 -11
29 8 55 26 37 27 77 2 141 -10 28 -16 52 -13 55 9 10 34 7 27 -3 -3 -5 -1 -12
5 -16 5 -3 10 0 10 7 0 9 3 9 10 -2 5 -8 10 -10 10 -5 0 6 5 3 11 -5 9 -12 10
-11 6 8 -4 17 -1 22 16 23 13 1 2 7 -23 14 -33 9 -38 13 -20 14 28 1 74 27
105 59 25 26 31 27 39 6z m1146 10 c0 -8 -19 -13 -24 -6 -3 5 1 9 9 9 8 0 15
-2 15 -3z m-425 -14 c3 -5 15 -10 25 -10 10 0 21 -4 25 -10 3 -5 -16 -3 -42 5
-26 7 -57 15 -68 18 -11 3 -4 5 17 6 20 0 40 -3 43 -9z m-1188 -6 c-3 -3 -12
-4 -19 -1 -8 3 -5 6 6 6 11 1 17 -2 13 -5z m1343 -25 c0 -5 -4 -9 -10 -9 -5 0
-10 7 -10 16 0 8 5 12 10 9 6 -3 10 -10 10 -16z m951 4 c13 -16 12 -17 -3 -4
-10 7 -18 15 -18 17 0 8 8 3 21 -13z m-988 -5 c-2 -5 -15 -8 -29 -8 -14 0 -23
3 -21 8 3 4 16 7 30 7 14 0 23 -3 20 -7z m1063 -20 l29 -33 -32 29 c-31 28
-38 36 -30 36 2 0 16 -15 33 -32z m-1885 -35 c-7 -26 -19 -59 -27 -73 l-15
-25 8 25 c4 14 6 36 5 50 -1 14 1 36 4 49 4 20 7 22 15 10 7 -11 9 -10 9 5 0
11 3 17 6 13 3 -3 1 -28 -5 -54z m2044 38 c3 -5 2 -12 -3 -15 -5 -3 -9 1 -9 9
0 17 3 19 12 6z m-2245 -22 c13 -9 13 -10 -2 -6 -9 3 -19 1 -22 -6 -2 -7 -5
-4 -5 6 -1 20 7 21 29 6z m157 -61 c-3 -7 -5 -2 -5 12 0 14 2 19 5 13 2 -7 2
-19 0 -25z m2003 -27 c0 -4 -6 -8 -13 -8 -8 0 -14 6 -14 13 0 7 6 10 14 7 7
-3 13 -8 13 -12z m-1805 -113 c-3 -21 -2 -28 3 -20 5 8 13 13 18 12 5 0 10 7
12 17 3 15 1 16 -7 3 -6 -8 -11 -10 -11 -4 0 21 11 21 88 2 42 -11 93 -23 112
-28 143 -32 249 -64 238 -72 -8 -6 0 -7 22 -3 35 6 35 6 10 -9 l-25 -14 30 -7
c17 -3 37 -10 46 -15 9 -5 27 -6 40 -3 l23 6 -24 9 c-12 5 -21 11 -18 14 8 7
98 -19 98 -28 0 -5 -11 -6 -24 -2 -13 3 -33 1 -45 -5 -16 -9 -33 -8 -72 5 -40
13 -56 15 -70 6 -29 -18 -35 -14 -10 7 18 16 19 20 7 30 -8 7 -40 15 -70 18
-32 3 -53 10 -49 15 3 6 -4 7 -18 3 -19 -5 -21 -4 -9 4 13 9 13 11 -1 11 -9 0
-19 -9 -22 -20 -5 -21 -32 -26 -56 -11 -11 7 -11 10 0 17 7 4 14 3 17 -4 2 -7
11 -12 19 -12 9 0 13 6 10 14 -3 8 -1 17 6 20 7 3 -4 4 -23 1 -28 -4 -31 -3
-15 5 14 7 1 8 -44 4 -40 -3 -61 -2 -57 4 3 6 16 8 29 5 12 -3 19 -3 16 1 -3
4 -24 9 -45 11 -22 3 -47 8 -57 11 -18 6 -74 -42 -62 -54 3 -3 12 3 19 14 8
10 18 15 23 11 4 -5 0 -13 -10 -18 -26 -15 -21 -26 13 -26 17 0 33 -3 37 -6
14 -15 -6 -17 -56 -6 -43 9 -51 14 -46 29 3 10 2 21 -3 24 -6 3 -9 -2 -8 -11
0 -10 -7 -19 -18 -21 -11 -3 -16 0 -11 7 3 6 11 9 16 5 6 -3 9 0 7 7 -3 14 21
79 28 79 3 0 2 -15 -1 -32z m158 -55 c-7 -2 -19 -2 -25 0 -7 3 -2 5 12 5 14 0
19 -2 13 -5z m-563 -23 c0 -5 -5 -10 -11 -10 -5 0 -7 5 -4 10 3 6 8 10 11 10
2 0 4 -4 4 -10z m610 -5 c7 -8 26 -15 42 -15 18 0 27 -4 23 -10 -4 -6 -15 -8
-26 -5 -51 14 -63 14 -34 0 17 -8 46 -14 66 -15 19 0 40 -5 46 -11 18 -18 135
-41 147 -28 8 8 5 9 -14 4 -24 -7 -24 -7 -7 11 14 16 19 17 26 5 5 -7 14 -10
20 -7 6 4 18 3 27 -2 15 -8 15 -10 0 -15 -10 -4 -15 -3 -11 3 10 16 -11 12
-25 -5 -10 -12 -10 -15 1 -16 8 0 25 -3 39 -6 14 -3 56 -6 94 -7 65 -1 69 0
72 22 3 14 0 21 -6 17 -6 -3 -7 1 -4 9 8 22 24 10 24 -17 0 -32 -12 -46 -46
-56 -24 -7 -80 4 -255 48 -123 30 -228 61 -232 68 -4 7 -13 13 -20 13 -7 0 -6
-4 3 -10 11 -8 7 -9 -15 -4 -36 8 -45 14 -21 14 9 0 15 4 11 9 -5 9 14 18 46
20 9 0 22 -6 29 -14z m-605 -35 c10 -11 16 -20 13 -20 -3 0 -13 9 -23 20 -10
11 -16 20 -13 20 3 0 13 -9 23 -20z m945 6 c0 -8 6 -17 13 -19 9 -4 9 -6 0 -6
-6 -1 -15 4 -18 9 -3 6 -16 10 -28 10 -18 0 -19 2 -7 10 22 14 40 12 40 -4z
m-1036 -12 c5 -14 4 -15 -9 -4 -17 14 -19 20 -6 20 5 0 12 -7 15 -16z m873 10
c-3 -3 -12 -4 -19 -1 -8 3 -5 6 6 6 11 1 17 -2 13 -5z m-813 -55 c-3 -5 -10
-7 -15 -3 -5 3 -7 10 -3 15 3 5 10 7 15 3 5 -3 7 -10 3 -15z m90 -1 c-5 -8 -1
-9 12 -4 15 6 16 5 7 -5 -10 -10 -15 -9 -27 1 -16 13 -12 35 5 24 5 -3 6 -10
3 -16z m942 -20 c-18 -12 -33 -9 -16 3 12 8 9 10 -12 6 -16 -2 -28 -1 -28 4 0
12 44 15 56 4 9 -7 9 -12 0 -17z m-1011 12 c-3 -5 2 -10 11 -10 10 0 15 -3 11
-6 -10 -10 -39 5 -32 16 3 5 8 10 11 10 3 0 2 -4 -1 -10z m60 -30 c-3 -5 -1
-10 6 -10 7 0 10 -3 6 -6 -9 -9 -28 6 -22 17 4 5 8 9 11 9 3 0 2 -4 -1 -10z
m180 -50 c-3 -5 -12 -10 -18 -10 -7 0 -6 4 3 10 19 12 23 12 15 0z m1328 -147
c-7 -2 -19 -2 -25 0 -7 3 -2 5 12 5 14 0 19 -2 13 -5z m-599 -42 c27 -28 27
-30 11 -60 -9 -17 -14 -35 -11 -39 6 -10 -8 -110 -19 -134 -4 -10 -3 -18 3
-18 5 0 12 10 15 22 4 12 9 19 13 15 3 -3 3 -14 -1 -24 -4 -10 -9 -31 -11 -47
-5 -37 -14 -47 -14 -15 0 19 -2 21 -10 9 -5 -8 -10 -28 -10 -45 0 -23 3 -27
10 -15 11 15 9 2 -6 -67 -10 -42 -11 -96 -3 -119 25 -72 37 -124 28 -124 -5 0
-9 12 -9 26 0 14 -4 23 -9 20 -14 -9 -1 -47 18 -54 20 -7 31 -23 24 -35 -3 -4
-11 0 -19 10 -16 22 -18 12 -3 -21 7 -14 17 -22 25 -19 8 3 11 10 8 17 -3 6 1
3 10 -7 8 -11 12 -26 9 -35 -4 -10 -3 -14 2 -10 4 4 14 3 22 -3 15 -13 18 -53
3 -44 -6 4 -8 10 -5 15 3 4 -2 11 -11 14 -18 7 -11 -8 19 -41 11 -13 18 -25
15 -29 -9 -8 -59 62 -56 77 2 8 -3 13 -9 12 -25 -5 -73 122 -67 177 3 21 0 29
-7 24 -9 -5 -10 32 -7 135 3 103 8 145 17 151 8 4 11 12 7 18 -7 12 12 169 24
197 13 31 9 57 -8 50 -10 -4 -12 0 -8 10 4 11 1 15 -11 13 -9 -2 -18 3 -20 10
-8 22 23 12 51 -17z m733 13 c-3 -3 -12 -4 -19 -1 -8 3 -5 6 6 6 11 1 17 -2
13 -5z m-508 -71 c-3 -33 1 -44 13 -37 7 5 8 3 3 -6 -5 -9 -1 -10 16 -6 21 6
22 6 6 -4 -15 -9 -22 -8 -38 6 -10 9 -19 13 -19 9 0 -5 -2 -6 -5 -3 -6 5 15
58 22 58 2 0 3 -8 2 -17z m778 11 c-3 -3 -12 -4 -19 -1 -8 3 -5 6 6 6 11 1 17
-2 13 -5z m-973 -93 c-4 -20 -6 -43 -5 -51 1 -11 -2 -10 -10 3 -8 13 -8 27 1
50 7 21 7 33 0 35 -6 2 -6 11 2 25 l13 22 3 -24 c2 -13 0 -40 -4 -60z m316 59
c0 -5 -12 -10 -27 -9 -25 0 -26 1 -8 9 27 12 35 12 35 0z m65 -10 c13 -6 15
-9 5 -9 -8 0 -22 4 -30 9 -18 12 -2 12 25 0z m45 -20 c0 -5 -4 -10 -10 -10 -5
0 -10 5 -10 10 0 6 5 10 10 10 6 0 10 -4 10 -10z m-235 -20 c17 -19 19 -19 37
-3 19 17 19 16 16 -10 -2 -15 -6 -28 -9 -29 -7 -3 -79 47 -79 55 0 13 17 7 35
-13z m415 -29 c52 -17 99 -31 105 -31 6 0 11 -11 11 -24 0 -16 -4 -22 -14 -19
-11 5 -11 8 -1 13 17 11 -141 60 -172 54 -20 -4 -21 -3 -5 4 19 8 18 9 -5 15
-34 10 -46 8 -29 -3 10 -7 11 -10 2 -10 -7 0 -15 7 -19 16 -4 12 -14 14 -42 9
-27 -4 -32 -3 -21 5 22 15 81 6 190 -29z m-416 -15 c98 -70 170 -155 220 -259
83 -171 86 -233 17 -369 l-36 -73 -47 2 c-96 3 -214 82 -275 184 -90 150 -82
381 17 518 17 23 33 41 36 41 4 0 34 -20 68 -44z m271 24 c3 -5 -1 -10 -9 -10
-9 0 -16 5 -16 10 0 6 4 10 9 10 6 0 13 -4 16 -10z m74 -40 c52 -12 131 -36
175 -52 45 -17 91 -31 103 -32 11 0 19 -4 16 -9 -2 -4 12 -14 32 -23 21 -8 55
-26 76 -40 22 -13 39 -21 39 -17 0 5 4 2 8 -5 6 -9 13 -7 27 10 11 13 13 17 5
11 -14 -13 -39 -19 -27 -6 9 9 -13 34 -24 27 -5 -3 -9 0 -9 5 0 6 -7 11 -16
11 -14 0 -15 -2 -3 -17 12 -14 10 -14 -13 1 -33 21 -34 25 -10 24 9 0 29 2 44
5 17 3 27 1 25 -5 -1 -6 4 -13 12 -16 9 -3 11 0 6 8 -12 19 35 -8 58 -34 10
-12 16 -15 12 -8 -4 7 15 -1 43 -17 41 -26 109 -91 159 -154 16 -20 8 -41 -20
-55 l-22 -11 23 3 c13 1 27 8 31 15 6 9 11 8 20 -3 7 -8 10 -19 7 -25 -4 -5 0
-15 7 -23 32 -32 96 -236 81 -259 -4 -6 -1 -15 6 -19 15 -10 -1 -66 -19 -63
-6 2 -11 -7 -11 -19 0 -12 -3 -19 -6 -16 -3 3 -2 23 2 43 5 26 9 33 15 23 6
-9 9 -7 9 10 0 12 -5 22 -11 22 -8 0 -8 4 -1 13 11 13 0 93 -18 126 -5 11 -10
29 -10 40 0 24 -15 28 -23 7 -3 -8 -14 -14 -25 -13 -14 1 -17 7 -14 26 3 21 1
23 -7 11 -6 -8 -11 -12 -11 -8 0 3 -2 13 -5 20 -4 9 2 14 15 14 14 0 20 -7 20
-23 0 -12 5 -25 10 -28 13 -8 13 21 -1 47 -8 15 -8 18 0 14 7 -4 9 -1 5 8 -3
9 -9 15 -12 14 -19 -2 -32 3 -32 13 0 8 5 8 15 -1 8 -7 15 -8 15 -2 0 5 -7 15
-15 22 -11 9 -15 9 -15 1 0 -7 -5 -9 -11 -5 -6 3 -14 2 -18 -4 -4 -7 -11 -4
-19 8 -8 13 -9 20 -1 20 5 0 7 5 3 12 -4 7 -3 8 5 4 6 -4 18 -3 26 4 11 9 10
17 -7 46 -14 24 -24 32 -31 25 -6 -6 -4 -15 7 -26 9 -9 16 -22 16 -28 0 -6 -7
-1 -16 11 -9 13 -20 19 -27 15 -7 -4 -4 5 6 20 l17 27 -29 0 c-16 0 -31 4 -33
10 -1 5 -17 10 -35 12 -17 1 -30 5 -28 8 6 9 64 0 71 -11 3 -5 12 -9 21 -9 14
0 14 2 -2 18 -11 10 -33 17 -57 16 -38 -1 -51 12 -23 22 8 4 15 10 15 15 0 5
-12 2 -26 -7 -21 -14 -27 -15 -34 -4 -4 7 -14 10 -22 7 -8 -3 -15 1 -15 8 0 7
5 12 11 11 6 -2 8 -1 3 1 -4 3 -5 9 -1 14 9 15 -2 10 -20 -10 -16 -17 -14 -20
36 -58 29 -22 65 -53 80 -68 17 -17 32 -24 40 -19 10 6 10 4 -1 -9 -12 -16 -8
-22 12 -18 5 1 6 -2 3 -7 -3 -5 8 -28 24 -52 16 -25 40 -69 52 -100 27 -68 48
-87 64 -58 10 18 12 18 17 4 4 -10 3 -15 -3 -11 -13 8 -13 -5 0 -25 9 -13 10
-13 11 0 1 22 18 -20 17 -45 0 -16 -2 -15 -8 5 -4 14 -9 18 -9 10 -1 -8 -8 -1
-17 15 -11 22 -13 24 -10 8 5 -30 0 -29 -19 5 -9 15 -14 19 -11 10 3 -9 8 -33
12 -52 3 -21 10 -33 17 -29 6 3 7 1 3 -5 -4 -7 0 -49 8 -94 22 -124 36 -313
36 -495 0 -121 3 -163 12 -163 8 0 7 -6 -4 -16 -20 -20 -41 -9 -33 17 4 10 2
19 -4 19 -6 0 -8 7 -5 15 5 12 -19 142 -34 185 -3 8 -4 26 -4 40 2 23 1 24 -8
5 -9 -16 -9 -15 -4 9 6 34 -16 162 -26 146 -3 -5 -6 11 -6 38 0 26 -5 56 -12
67 -10 18 -11 17 -12 -12 0 -18 5 -33 10 -33 15 0 12 -17 -7 -35 -9 -9 -18
-35 -20 -58 -4 -40 -3 -41 11 -20 9 12 13 30 10 40 -3 10 4 3 15 -16 12 -18
20 -38 17 -45 -2 -6 -8 -1 -12 12 -7 23 -7 23 -22 -8 -15 -31 -16 -32 -24 -10
-4 12 -6 39 -2 59 17 105 21 179 11 213 -5 21 -13 35 -18 33 -4 -3 -5 5 -1 17
4 15 2 19 -7 13 -10 -5 -11 -2 -6 14 4 12 2 21 -4 21 -6 0 -11 -7 -11 -15 0
-8 -7 -15 -16 -15 -11 0 -14 -6 -9 -22 5 -16 4 -20 -3 -13 -5 6 -13 26 -16 45
-4 26 -4 30 3 15 9 -19 10 -19 10 3 1 12 -3 22 -9 22 -5 0 -10 4 -10 10 0 21
29 -4 33 -28 2 -15 4 -4 5 23 1 52 -37 162 -52 148 -4 -4 -4 0 -1 8 3 9 -3 27
-14 40 l-20 24 -1 -25 c0 -20 2 -22 10 -10 8 12 10 11 10 -5 0 -23 -17 -45
-34 -45 -14 0 -19 96 -6 120 7 13 7 21 -2 26 -7 5 -8 3 -3 -5 5 -9 0 -12 -16
-9 -16 2 -25 11 -27 25 -2 15 -8 20 -20 17 -12 -4 -13 -3 -4 3 13 10 6 47 -7
39 -4 -3 -7 4 -7 14 0 25 11 17 26 -20 7 -16 16 -27 21 -24 5 3 9 0 9 -7 0 -7
3 -9 6 -6 10 10 -66 98 -78 91 -6 -4 -8 -3 -5 3 10 15 -59 77 -78 70 -22 -9
-31 -37 -15 -47 10 -6 11 -14 4 -31 -10 -22 -12 -21 -44 26 -18 26 -28 45 -22
41 6 -3 14 -1 18 5 4 8 9 7 15 -2 4 -7 12 -10 16 -5 4 4 -1 14 -11 22 -11 7
-16 17 -12 21 4 4 12 0 17 -10 11 -18 29 -23 29 -8 0 5 -18 17 -40 27 -22 10
-40 21 -40 24 0 11 -44 26 -62 22 -20 -4 -24 -22 -5 -22 8 0 7 -4 -3 -10 -12
-8 -11 -10 6 -10 12 0 28 -8 35 -17 12 -16 12 -17 -1 -7 -27 19 -101 35 -133
30 -22 -4 -26 -3 -13 2 14 6 16 11 8 16 -7 4 -9 12 -6 18 5 7 -3 9 -22 5 -16
-3 -23 -4 -16 -1 10 5 10 9 0 22 -11 14 -10 15 7 8 11 -5 31 -10 45 -13 21 -3
19 -1 -10 15 -19 10 -34 24 -32 30 2 14 -45 35 -58 27 -5 -3 -10 0 -12 5 -2 6
-10 12 -18 14 -8 1 -25 7 -37 14 -12 7 -28 12 -35 11 -7 0 -4 -5 7 -10 19 -8
19 -9 1 -6 -13 1 -21 12 -23 30 -3 24 -1 27 14 19 10 -5 61 -19 112 -32z
m-269 0 c0 -5 -2 -10 -4 -10 -3 0 -8 5 -11 10 -3 6 -1 10 4 10 6 0 11 -4 11
-10z m23 -6 c-5 -14 -3 -15 16 -4 21 11 22 10 12 -9 -14 -26 -14 -34 1 -25 7
5 8 3 4 -5 -5 -8 0 -14 13 -18 12 -3 21 -9 21 -14 0 -5 5 -9 11 -9 5 0 7 6 4
13 -4 6 3 1 14 -12 12 -12 19 -27 16 -31 -3 -4 1 -20 9 -34 10 -21 15 -23 19
-11 4 8 11 15 17 15 6 0 4 -7 -4 -16 -21 -20 -21 -41 -1 -24 8 7 15 8 15 2 0
-5 -6 -15 -13 -21 -11 -8 -16 -6 -24 12 -6 12 -10 25 -9 29 0 4 -9 15 -22 24
-13 9 -21 22 -18 30 3 8 1 14 -4 14 -13 0 -69 50 -81 73 -6 9 -7 22 -4 27 10
16 15 12 8 -6z m-413 -23 c0 -5 -9 -60 -20 -122 -45 -260 -11 -386 148 -551
95 -99 94 -100 -34 -68 -69 17 -84 25 -118 62 -79 88 -116 202 -116 363 0 82
22 270 33 281 9 9 83 43 95 44 6 0 12 -4 12 -9z m916 -6 c18 -13 18 -14 -4 -8
-12 3 -25 9 -28 14 -8 14 10 11 32 -6z m-321 -5 c4 -6 11 -8 16 -5 5 4 9 2 9
-3 0 -5 -9 -12 -20 -15 -11 -3 -18 0 -17 7 1 6 -9 10 -25 9 -16 -1 -28 2 -28
8 0 12 57 12 65 -1z m413 -21 c18 -6 29 -15 26 -20 -3 -5 2 -9 11 -9 9 0 14
-4 11 -8 -6 -10 -36 -9 -54 2 -6 4 -17 4 -24 0 -7 -5 -8 -3 -4 5 5 7 14 10 22
7 8 -3 14 -1 14 4 0 6 -6 10 -14 10 -8 0 -18 5 -21 10 -8 13 -5 12 33 -1z
m-441 -5 c-3 -3 -12 -4 -19 -1 -8 3 -5 6 6 6 11 1 17 -2 13 -5z m51 -91 c-10
-2 -18 -9 -18 -15 0 -6 -3 -9 -6 -5 -10 10 6 27 24 26 15 -1 15 -2 0 -6z m73
-15 c-13 -4 -28 -5 -34 -1 -14 9 23 22 42 15 10 -4 8 -8 -8 -14z m409 12 c0
-5 -2 -10 -4 -10 -3 0 -8 5 -11 10 -3 6 -1 10 4 10 6 0 11 -4 11 -10z m-448
-22 c13 -10 14 -15 5 -23 -7 -5 -18 -10 -26 -10 -8 0 -16 -7 -18 -15 -4 -13
-3 -13 6 0 6 8 11 10 11 4 0 -6 -9 -19 -20 -29 -19 -17 -22 -18 -37 -2 -14 14
-15 19 -4 29 10 11 11 9 5 -7 -7 -18 -6 -18 9 -6 9 7 14 18 11 23 -6 9 23 48
36 48 3 0 14 -6 22 -12z m372 -103 c-20 -30 -24 -31 -24 -4 0 11 4 18 9 14 5
-3 12 -1 16 5 3 5 8 10 11 10 2 0 -3 -11 -12 -25z m265 -18 c0 -9 -2 -9 -6 1
-2 6 -10 12 -18 12 -7 0 -19 7 -26 17 -13 15 -11 15 19 -1 17 -9 32 -22 31
-29z m-232 14 c0 -11 -7 -17 -14 -14 -9 4 -9 8 0 19 16 17 16 17 14 -5z m-214
-17 c3 -4 1 -12 -6 -18 -8 -8 -11 -33 -8 -67 2 -38 6 -48 11 -34 4 11 5 24 2
29 -3 5 0 6 6 2 7 -4 12 -1 12 6 0 11 2 10 9 0 7 -11 9 -11 14 1 4 11 -1 14
-19 12 -19 -2 -24 2 -24 21 0 30 9 30 36 1 l22 -23 -22 -69 c-37 -115 -106
-227 -134 -217 -7 2 -10 -2 -6 -11 3 -8 0 -18 -7 -22 -7 -5 -10 -3 -7 6 3 8 1
22 -4 31 -7 14 -5 16 8 11 12 -4 15 -3 10 6 -4 6 -2 18 4 26 10 12 10 19 -1
33 -13 15 -12 16 4 3 10 -8 16 -20 13 -27 -8 -21 11 -26 28 -9 12 13 13 20 4
34 -6 11 -17 17 -24 14 -20 -7 -23 11 -7 32 13 16 15 17 10 3 -4 -10 -2 -18 3
-18 6 0 9 15 8 33 -2 43 28 149 35 122 2 -11 3 -4 1 15 -6 56 9 94 29 74z
m163 -44 c-1 -29 -6 -36 -19 -24 -5 5 12 54 18 54 1 0 2 -13 1 -30z m24 -89
c6 -12 6 -29 2 -42 l-9 -23 -6 26 c-4 14 -10 33 -13 42 -9 23 13 20 26 -3z
m376 -12 c19 -21 19 -21 -1 -18 -20 4 -35 17 -35 32 0 13 17 7 36 -14z m-319
-21 c-3 -7 -5 -2 -5 12 0 14 2 19 5 13 2 -7 2 -19 0 -25z m2 -103 c0 -5 -4 -1
-9 10 l-9 20 -1 -20 c-1 -20 -1 -20 -12 0 -11 19 -11 19 -19 0 -5 -12 -6 -1
-4 29 5 58 15 74 15 23 0 -20 5 -37 11 -37 7 0 9 15 5 43 l-6 42 15 -50 c8
-27 14 -54 14 -60z m161 -5 c0 -5 -4 -10 -9 -10 -6 0 -13 5 -16 10 -3 6 1 10
9 10 9 0 16 -4 16 -10z m-533 -28 c-10 -10 -17 -24 -17 -31 0 -7 -6 -9 -12 -6
-7 4 -3 -2 10 -12 13 -10 19 -22 15 -27 -4 -4 -8 -13 -8 -18 0 -6 -6 -13 -12
-15 -15 -5 -17 13 -3 22 20 12 9 25 -17 21 -47 -6 -60 -16 -58 -41 2 -18 -1
-22 -13 -18 -14 4 -15 3 -2 -5 16 -12 44 3 35 18 -3 5 0 12 6 16 8 5 9 3 4 -6
-6 -10 -4 -12 8 -7 11 4 17 1 17 -9 0 -8 -4 -12 -10 -9 -5 3 -10 2 -10 -3 0
-18 -92 -42 -156 -42 -67 0 -184 31 -209 56 -8 8 -15 13 -15 9 0 -3 -9 -1 -20
5 -25 13 -27 35 -2 25 13 -5 14 -4 5 6 -9 9 -15 9 -27 0 -11 -10 -17 -6 -29
19 -9 16 -11 30 -6 30 6 0 7 6 3 13 -4 6 2 3 14 -7 17 -15 19 -22 11 -33 -9
-11 -9 -12 4 -7 20 7 60 -14 51 -28 -5 -7 -1 -9 9 -5 10 3 17 2 17 -4 0 -5 6
-9 13 -8 29 4 40 -4 17 -12 -21 -7 -19 -8 12 -5 21 3 44 -1 55 -9 10 -8 13
-15 8 -15 -6 0 -16 5 -23 12 -6 6 -15 9 -18 5 -15 -15 10 -21 89 -22 94 -1
135 4 117 15 -8 5 -2 10 14 14 35 9 34 28 -1 20 -48 -10 -54 -14 -47 -25 4 -8
0 -8 -15 0 -12 7 -26 9 -31 6 -6 -3 -10 -2 -10 3 0 5 24 13 53 16 58 8 118 39
161 85 32 33 51 44 23 13z m478 8 c3 -5 -1 -10 -9 -10 -9 0 -16 5 -16 10 0 6
4 10 9 10 6 0 13 -4 16 -10z m-135 -14 c0 -8 -4 -18 -10 -21 -5 -3 -10 3 -10
14 0 12 5 21 10 21 6 0 10 -6 10 -14z m23 -6 c3 -11 1 -18 -4 -14 -5 3 -9 1
-9 -4 0 -5 -3 -25 -6 -43 -4 -26 -3 -30 5 -19 13 18 14 1 2 -19 -17 -26 -25
37 -11 80 7 21 14 39 15 39 2 0 5 -9 8 -20z m184 -12 c-3 -8 -6 -5 -6 6 -1 11
2 17 5 13 3 -3 4 -12 1 -19z m-20 6 c-3 -3 -12 -4 -19 -1 -8 3 -5 6 6 6 11 1
17 -2 13 -5z m30 -46 c-3 -8 -6 -5 -6 6 -1 11 2 17 5 13 3 -3 4 -12 1 -19z
m200 -10 c-3 -8 -6 -5 -6 6 -1 11 2 17 5 13 3 -3 4 -12 1 -19z m-1032 -48 c3
-6 -1 -7 -9 -4 -18 7 -21 14 -7 14 6 0 13 -4 16 -10z m642 -22 c-3 -7 -5 -2
-5 12 0 14 2 19 5 13 2 -7 2 -19 0 -25z m390 0 c-3 -7 -5 -2 -5 12 0 14 2 19
5 13 2 -7 2 -19 0 -25z m-407 -42 c-7 -7 -10 1 -9 25 0 32 1 33 10 10 6 -16 6
-28 -1 -35z m240 14 c0 -5 -4 -10 -10 -10 -5 0 -10 5 -10 10 0 6 5 10 10 10 6
0 10 -4 10 -10z m231 -53 c-13 -13 -15 21 -3 50 6 15 8 13 10 -11 2 -16 -1
-33 -7 -39z m-26 6 c-3 -21 -10 -42 -15 -46 -4 -5 -3 12 3 37 12 55 22 62 12
9z m-427 -50 c1 -37 7 -70 11 -73 5 -3 11 -43 15 -90 3 -47 10 -105 16 -130 7
-30 7 -60 0 -90 l-9 -45 4 50 c3 30 1 45 -4 37 -6 -9 -8 -5 -8 15 -1 15 -10
105 -22 198 -24 193 -24 195 -13 195 4 0 8 -30 10 -67z m253 3 c-7 -13 -10
-29 -7 -35 5 -7 0 -8 -15 -3 -34 13 -43 48 -18 73 19 19 23 20 37 5 13 -13 14
-19 3 -40z m195 -28 c0 -33 -2 -45 -7 -32 -13 32 -10 84 5 84 1 0 1 -23 2 -52z
m42 -158 c1 -28 -1 -31 -8 -15 -5 11 -9 40 -9 65 -1 25 -6 62 -12 83 -5 21 -7
48 -3 60 6 16 11 -3 20 -68 7 -49 12 -106 12 -125z m-71 113 c-3 -10 -5 -2 -5
17 0 19 2 27 5 18 2 -10 2 -26 0 -35z m-170 -15 c-3 -8 -6 -5 -6 6 -1 11 2 17
5 13 3 -3 4 -12 1 -19z m218 -126 c3 -13 11 -22 18 -19 15 5 22 -65 21 -225
-1 -108 -3 -121 -30 -175 -17 -34 -35 -57 -43 -55 -9 2 -11 -3 -7 -13 3 -9 2
-13 -4 -10 -6 3 -10 1 -10 -4 0 -6 -5 -11 -11 -11 -8 0 -8 4 -1 13 5 6 9 26 7
44 -1 25 2 31 17 28 10 -2 23 -7 30 -11 7 -5 8 -3 4 5 -5 7 0 21 10 32 10 11
20 37 21 57 7 72 8 182 3 182 -3 0 -6 27 -5 59 0 64 -17 99 -35 71 -9 -13 -10
-13 -11 0 0 11 -2 10 -8 -3 -4 -11 -7 5 -8 40 l0 58 13 -45 13 -45 -4 80 c-4
76 -3 77 6 25 5 -30 11 -66 14 -78z m-421 43 c-4 -8 -8 -15 -10 -15 -2 0 -4 7
-4 15 0 8 4 15 10 15 5 0 7 -7 4 -15z m34 -55 l0 -25 -8 25 c-4 14 -8 36 -8
50 l0 25 8 -25 c4 -14 8 -36 8 -50z m-31 -2 c-3 -8 -6 -5 -6 6 -1 11 2 17 5
13 3 -3 4 -12 1 -19z m28 -130 c0 -43 -3 -72 -7 -65 -5 7 -6 -21 -4 -61 6 -79
-7 -91 -18 -16 -4 30 -1 62 9 90 14 41 14 89 0 144 -6 24 -6 24 7 5 7 -12 13
-52 13 -97z m361 31 c-5 -34 -4 -49 4 -44 14 9 16 -16 5 -97 -8 -59 -25 -63
-25 -7 0 24 4 38 10 34 11 -7 14 18 3 29 -14 14 -11 136 4 136 3 0 3 -23 -1
-51z m31 -1 c-2 -13 -4 -5 -4 17 -1 22 1 32 4 23 2 -10 2 -28 0 -40z m-123
-98 c5 -21 4 -20 -8 5 -9 17 -15 44 -14 60 0 30 0 30 8 -5 5 -19 11 -46 14
-60z m128 -2 c-8 -8 -9 -4 -5 13 4 13 8 18 11 10 2 -7 -1 -18 -6 -23z m-127
-48 c8 -16 15 -39 14 -52 0 -16 -4 -12 -12 15 -7 22 -14 36 -17 33 -3 -3 -6 4
-6 14 0 26 3 25 21 -10z m141 -8 c1 -7 0 -8 -3 -2 -12 25 -23 6 -18 -32 5 -43
5 -43 -6 -9 -5 18 -8 40 -5 48 7 17 29 13 32 -5z m-154 -47 c3 -13 1 -22 -3
-19 -9 5 -13 44 -5 44 2 0 6 -11 8 -25z m41 -55 c19 -23 22 -40 7 -40 -5 0
-10 6 -10 14 0 8 -7 16 -15 20 -8 3 -15 10 -15 16 0 16 14 12 33 -10z m-295
-45 c0 -16 -2 -15 -8 5 -11 34 -11 60 0 35 5 -11 8 -29 8 -40z m272 5 c0 -5
-4 -10 -10 -10 -5 0 -10 5 -10 10 0 6 5 10 10 10 6 0 10 -4 10 -10z m-240 -50
c0 -11 -7 -20 -15 -20 -8 0 -15 9 -15 20 0 11 7 20 15 20 8 0 15 -9 15 -20z
m212 -51 c-4 -4 -25 -10 -47 -13 -37 -6 -38 -6 -16 6 25 13 76 18 63 7z m30
-8 c-14 -12 -18 -21 -10 -23 7 -3 5 -7 -6 -11 -10 -4 -15 -3 -11 3 3 6 -2 10
-12 11 -15 0 -14 2 3 9 12 5 25 13 29 19 3 6 12 11 18 11 7 -1 2 -9 -11 -19z
m-242 -16 c4 3 11 -7 16 -23 l7 -27 7 30 8 30 1 -28 c1 -17 -5 -30 -15 -34
-20 -7 -31 5 -36 42 -3 17 -3 24 -1 17 3 -7 8 -10 13 -7z m275 5 c-3 -5 -11
-10 -16 -10 -6 0 -7 5 -4 10 3 6 11 10 16 10 6 0 7 -4 4 -10z m-145 -24 c0 -8
6 -17 13 -19 6 -3 -3 -6 -20 -6 -31 -1 -44 15 -26 32 12 12 33 7 33 -7z m52
-8 c-9 -9 -15 -9 -24 0 -9 9 -7 12 12 12 19 0 21 -3 12 -12z"/>
<path d="M293 4123 c-69 -38 -114 -137 -112 -247 2 -218 182 -254 258 -51 19
49 22 74 19 135 -5 87 -25 133 -71 160 -39 24 -54 25 -94 3z"/>
<path d="M328 3423 c-39 -45 -50 -116 -26 -168 38 -84 141 9 125 112 -11 65
-65 95 -99 56z"/>
<path d="M2894 3143 c-3 -16 -14 -55 -24 -88 -10 -33 -16 -63 -12 -66 4 -4
178 -50 388 -103 327 -82 385 -94 416 -86 45 13 71 42 71 80 0 49 -36 77 -143
110 -87 26 -670 180 -684 180 -3 0 -8 -12 -12 -27z m56 -45 c0 -4 -8 -8 -17
-8 -15 0 -16 -2 -3 -10 9 -6 18 -6 24 0 6 6 24 11 41 11 l30 2 -34 6 c-19 3
-36 11 -38 17 -3 8 8 9 42 1 31 -7 44 -15 41 -23 -3 -8 -1 -16 5 -19 5 -4 7
-10 5 -14 -3 -4 7 -6 22 -5 45 3 48 4 32 14 -8 5 -22 7 -32 4 -17 -5 -34 11
-21 19 5 3 32 0 61 -5 38 -8 50 -14 40 -20 -9 -7 -2 -8 20 -4 20 3 31 2 27 -4
-3 -5 0 -8 7 -5 7 3 47 -4 88 -15 62 -17 67 -19 30 -16 -25 2 -39 1 -31 -1 11
-5 11 -7 0 -14 -9 -6 -1 -7 21 -4 l35 5 -33 -12 c-18 -6 -31 -16 -29 -22 4
-12 52 -13 82 -2 11 5 7 -1 -10 -12 -21 -13 -36 -17 -52 -11 -14 5 -25 4 -29
-2 -9 -15 -4 -17 46 -24 33 -5 41 -4 30 4 -8 6 -10 11 -4 11 6 0 17 -6 23 -14
19 -22 -12 -27 -68 -10 -50 14 -76 34 -47 34 9 0 16 7 16 15 0 8 -9 15 -19 15
-29 0 -34 17 -8 24 20 6 21 7 5 19 -11 9 -47 12 -117 11 -82 -2 -101 0 -101
12 0 8 -8 14 -17 14 -15 0 -16 -2 -3 -10 13 -8 13 -10 -2 -10 -9 0 -20 5 -23
10 -3 6 -14 10 -23 10 -14 0 -14 -1 2 -13 9 -7 16 -19 14 -27 -2 -8 9 -17 27
-21 19 -4 23 -7 10 -8 -30 -1 -65 10 -60 19 3 5 -10 7 -29 6 l-33 -3 9 36 c4
20 11 49 15 65 6 27 7 28 20 11 7 -11 13 -22 13 -27z m80 -78 c12 -8 9 -10
-12 -10 -16 0 -28 5 -28 10 0 13 20 13 40 0z m90 -20 c0 -5 -12 -10 -27 -10
-22 0 -25 2 -13 10 20 13 40 13 40 0z m295 -4 c-10 -7 -28 -11 -39 -8 -20 6
-20 6 4 13 43 12 56 10 35 -5z m45 0 c0 -2 -7 -7 -16 -10 -8 -3 -12 -2 -9 4 6
10 25 14 25 6z m-125 -16 c-3 -5 -16 -10 -28 -10 -18 0 -19 2 -7 10 20 13 43
13 35 0z m172 2 c8 -5 -1 -8 -22 -8 -21 0 -30 3 -22 8 6 4 17 8 22 8 6 0 16
-4 22 -8z m-335 -24 c-7 -7 -16 -7 -28 0 -14 8 -13 10 10 10 18 0 24 -4 18
-10z m33 2 c-3 -5 -1 -10 6 -10 7 0 10 -3 6 -6 -9 -9 -28 6 -22 17 4 5 8 9 11
9 3 0 2 -4 -1 -10z m352 3 c-14 -4 -16 -8 -6 -19 15 -18 2 -18 -16 0 -17 16
-9 26 19 25 18 -1 18 -2 3 -6z m73 -24 c0 -5 -4 -9 -10 -9 -5 0 -10 4 -10 9 0
5 -10 7 -22 5 -21 -4 -21 -4 -3 4 22 10 45 5 45 -9z m-26 -21 c-5 -8 -2 -9 9
-5 10 4 17 1 17 -6 0 -7 -9 -13 -19 -13 -11 0 -17 4 -15 8 3 4 -1 8 -9 8 -8 0
-17 -9 -20 -21 -5 -18 -2 -20 21 -14 15 4 23 3 19 -1 -11 -11 -77 -13 -77 -2
0 4 5 8 10 8 6 0 10 7 10 15 0 9 10 20 23 25 31 12 39 12 31 -2z m-184 -18 c8
-5 12 -12 9 -15 -8 -8 -39 5 -39 16 0 11 11 11 30 -1z m67 -26 c-3 -3 -12 -4
-19 -1 -8 3 -5 6 6 6 11 1 17 -2 13 -5z"/>
<path d="M2983 3073 c9 -2 23 -2 30 0 6 3 -1 5 -18 5 -16 0 -22 -2 -12 -5z"/>
<path d="M2917 3029 c8 -8 16 -8 30 0 16 9 14 10 -11 11 -22 0 -27 -3 -19 -11z"/>
<path d="M3283 3215 c0 -17 6 -18 25 -6 11 7 10 10 -3 15 -22 8 -22 8 -22 -9z"/>
<path d="M2621 3122 c-1 -7 -16 -19 -33 -27 -18 -8 -25 -14 -16 -15 9 0 24 -3
34 -7 12 -4 15 -3 10 5 -5 8 -2 10 8 6 18 -7 19 1 6 31 -5 11 -9 14 -9 7z"/>
<path d="M2562 2982 c-10 -7 -10 -15 -2 -36 14 -39 13 -51 -5 -36 -10 8 -13
21 -9 33 4 13 2 17 -5 13 -6 -4 -11 -18 -11 -30 0 -13 -11 -40 -25 -61 -28
-40 -28 -57 -3 -61 10 -1 19 8 23 23 4 17 11 23 21 19 9 -3 12 -2 9 5 -4 6 1
17 11 25 11 9 13 12 5 8 -10 -5 -12 -3 -7 5 5 7 14 10 22 7 11 -4 11 -1 -1 18
-10 15 -14 33 -9 50 7 28 6 30 -14 18z m-19 -111 c-5 -3 -19 -19 -31 -35 -12
-16 -22 -26 -22 -22 0 10 33 60 45 68 5 4 6 8 2 8 -5 0 -5 6 0 13 5 8 9 7 11
-7 2 -10 0 -21 -5 -25z"/>
<path d="M2580 2953 c0 -5 7 -17 15 -27 15 -20 20 -10 9 18 -6 16 -24 22 -24
9z"/>
<path d="M2671 3064 c0 -11 3 -14 6 -6 3 7 2 16 -1 19 -3 4 -6 -2 -5 -13z"/>
<path d="M3008 2793 c6 -2 18 -2 25 0 6 3 1 5 -13 5 -14 0 -19 -2 -12 -5z"/>
<path d="M3362 2035 c0 -16 2 -22 5 -12 2 9 2 23 0 30 -3 6 -5 -1 -5 -18z"/>
<path d="M3655 2281 c-3 -5 -2 -12 3 -15 5 -3 9 1 9 9 0 17 -3 19 -12 6z"/>
<path d="M4030 2163 c1 -11 82 -48 100 -46 9 1 6 -5 -8 -16 -23 -17 -21 -31 5
-31 8 0 11 5 7 12 -4 6 0 16 10 23 14 11 8 16 -45 39 -66 29 -69 29 -69 19z"/>
<path d="M4073 2114 c-7 -3 -9 -12 -6 -20 8 -21 22 -17 20 6 -1 11 -1 20 -2
19 0 0 -5 -3 -12 -5z"/>
<path d="M4575 2020 c3 -5 8 -10 11 -10 2 0 4 5 4 10 0 6 -5 10 -11 10 -5 0
-7 -4 -4 -10z"/>
<path d="M4257 1970 c16 -28 33 -40 33 -22 -1 10 -37 52 -45 52 -3 0 2 -13 12
-30z"/>
<path d="M4494 1775 c-3 -13 -4 -30 -1 -37 3 -7 6 0 6 15 1 16 5 26 11 22 6
-3 7 1 4 9 -8 22 -13 20 -20 -9z"/>
<path d="M3810 2119 c0 -5 5 -7 10 -4 6 3 10 8 10 11 0 2 -4 4 -10 4 -5 0 -10
-5 -10 -11z"/>
<path d="M3927 2053 c-13 -13 -7 -21 13 -16 11 3 17 9 14 14 -6 11 -18 12 -27
2z"/>
<path d="M3895 1990 c-3 -6 1 -7 9 -4 18 7 21 14 7 14 -6 0 -13 -4 -16 -10z"/>
<path d="M4171 1814 c0 -11 3 -14 6 -6 3 7 2 16 -1 19 -3 4 -6 -2 -5 -13z"/>
<path d="M4120 1785 c14 -17 13 -18 -3 -12 -10 4 -16 3 -12 -2 3 -5 1 -12 -5
-16 -13 -8 -13 -25 0 -25 6 0 10 8 11 18 0 15 1 15 8 -2 9 -24 19 -10 17 23 0
13 -8 27 -16 29 -13 5 -13 3 0 -13z"/>
<path d="M4156 1773 c-6 -14 -5 -15 5 -6 7 7 10 15 7 18 -3 3 -9 -2 -12 -12z"/>
<path d="M4130 1718 c-8 -21 -9 -21 -9 -3 -1 14 -4 16 -13 7 -8 -8 -8 -15 2
-27 11 -13 10 -14 -5 -9 -15 6 -16 4 -6 -14 7 -12 14 -22 17 -22 3 0 3 4 0 9
-4 5 -3 11 1 13 13 5 43 68 32 68 -5 0 -14 -10 -19 -22z"/>
<path d="M4050 1611 c0 -5 5 -13 10 -16 6 -3 10 -2 10 4 0 5 -4 13 -10 16 -5
3 -10 2 -10 -4z"/>
<path d="M3738 1473 c7 -3 16 -2 19 1 4 3 -2 6 -13 5 -11 0 -14 -3 -6 -6z"/>
<path d="M3858 1473 c7 -3 16 -2 19 1 4 3 -2 6 -13 5 -11 0 -14 -3 -6 -6z"/>
<path d="M4816 703 c-4 -9 -4 -18 -1 -21 3 -3 5 1 5 9 0 12 2 12 9 0 5 -7 11
-9 14 -5 3 5 -1 14 -8 21 -10 10 -15 9 -19 -4z"/>
<path d="M1328 4083 c7 -3 16 -2 19 1 4 3 -2 6 -13 5 -11 0 -14 -3 -6 -6z"/>
<path d="M1408 4063 c7 -3 16 -2 19 1 4 3 -2 6 -13 5 -11 0 -14 -3 -6 -6z"/>
<path d="M1448 4053 c7 -3 16 -2 19 1 4 3 -2 6 -13 5 -11 0 -14 -3 -6 -6z"/>
<path d="M1608 4013 c7 -3 16 -2 19 1 4 3 -2 6 -13 5 -11 0 -14 -3 -6 -6z"/>
<path d="M1728 3983 c7 -3 16 -2 19 1 4 3 -2 6 -13 5 -11 0 -14 -3 -6 -6z"/>
<path d="M1978 3923 c7 -3 16 -2 19 1 4 3 -2 6 -13 5 -11 0 -14 -3 -6 -6z"/>
<path d="M2128 3883 c7 -3 16 -2 19 1 4 3 -2 6 -13 5 -11 0 -14 -3 -6 -6z"/>
<path d="M2248 3853 c7 -3 16 -2 19 1 4 3 -2 6 -13 5 -11 0 -14 -3 -6 -6z"/>
<path d="M2418 3813 c7 -3 16 -2 19 1 4 3 -2 6 -13 5 -11 0 -14 -3 -6 -6z"/>
<path d="M3218 3613 c7 -3 16 -2 19 1 4 3 -2 6 -13 5 -11 0 -14 -3 -6 -6z"/>
<path d="M3298 3593 c7 -3 16 -2 19 1 4 3 -2 6 -13 5 -11 0 -14 -3 -6 -6z"/>
<path d="M3338 3583 c7 -3 16 -2 19 1 4 3 -2 6 -13 5 -11 0 -14 -3 -6 -6z"/>
<path d="M3458 3553 c7 -3 16 -2 19 1 4 3 -2 6 -13 5 -11 0 -14 -3 -6 -6z"/>
<path d="M3578 3523 c7 -3 16 -2 19 1 4 3 -2 6 -13 5 -11 0 -14 -3 -6 -6z"/>
<path d="M3698 3493 c7 -3 16 -2 19 1 4 3 -2 6 -13 5 -11 0 -14 -3 -6 -6z"/>
<path d="M4108 3393 c7 -3 16 -2 19 1 4 3 -2 6 -13 5 -11 0 -14 -3 -6 -6z"/>
<path d="M4228 3363 c7 -3 16 -2 19 1 4 3 -2 6 -13 5 -11 0 -14 -3 -6 -6z"/>
<path d="M488 3123 c7 -3 16 -2 19 1 4 3 -2 6 -13 5 -11 0 -14 -3 -6 -6z"/>
<path d="M528 3113 c6 -2 18 -2 25 0 6 3 1 5 -13 5 -14 0 -19 -2 -12 -5z"/>
<path d="M598 3103 c7 -3 16 -2 19 1 4 3 -2 6 -13 5 -11 0 -14 -3 -6 -6z"/>
<path d="M638 3093 c7 -3 16 -2 19 1 4 3 -2 6 -13 5 -11 0 -14 -3 -6 -6z"/>
<path d="M678 3083 c6 -2 18 -2 25 0 6 3 1 5 -13 5 -14 0 -19 -2 -12 -5z"/>
<path d="M798 3063 c7 -3 16 -2 19 1 4 3 -2 6 -13 5 -11 0 -14 -3 -6 -6z"/>
<path d="M848 3053 c6 -2 18 -2 25 0 6 3 1 5 -13 5 -14 0 -19 -2 -12 -5z"/>
<path d="M908 3043 c7 -3 16 -2 19 1 4 3 -2 6 -13 5 -11 0 -14 -3 -6 -6z"/>
<path d="M958 3033 c7 -3 16 -2 19 1 4 3 -2 6 -13 5 -11 0 -14 -3 -6 -6z"/>
<path d="M1003 3023 c9 -2 23 -2 30 0 6 3 -1 5 -18 5 -16 0 -22 -2 -12 -5z"/>
<path d="M1118 3003 c7 -3 16 -2 19 1 4 3 -2 6 -13 5 -11 0 -14 -3 -6 -6z"/>
<path d="M1228 2983 c7 -3 16 -2 19 1 4 3 -2 6 -13 5 -11 0 -14 -3 -6 -6z"/>
<path d="M1268 2973 c6 -2 18 -2 25 0 6 3 1 5 -13 5 -14 0 -19 -2 -12 -5z"/>
<path d="M1388 2953 c7 -3 16 -2 19 1 4 3 -2 6 -13 5 -11 0 -14 -3 -6 -6z"/>
<path d="M1428 2943 c6 -2 18 -2 25 0 6 3 1 5 -13 5 -14 0 -19 -2 -12 -5z"/>
<path d="M1498 2933 c7 -3 16 -2 19 1 4 3 -2 6 -13 5 -11 0 -14 -3 -6 -6z"/>
<path d="M1538 2923 c6 -2 18 -2 25 0 6 3 1 5 -13 5 -14 0 -19 -2 -12 -5z"/>
<path d="M1593 2913 c9 -2 23 -2 30 0 6 3 -1 5 -18 5 -16 0 -22 -2 -12 -5z"/>
<path d="M1658 2903 c7 -3 16 -2 19 1 4 3 -2 6 -13 5 -11 0 -14 -3 -6 -6z"/>
<path d="M1698 2893 c7 -3 16 -2 19 1 4 3 -2 6 -13 5 -11 0 -14 -3 -6 -6z"/>
<path d="M1818 2873 c7 -3 16 -2 19 1 4 3 -2 6 -13 5 -11 0 -14 -3 -6 -6z"/>
<path d="M1858 2863 c7 -3 16 -2 19 1 4 3 -2 6 -13 5 -11 0 -14 -3 -6 -6z"/>
<path d="M1978 2843 c7 -3 16 -2 19 1 4 3 -2 6 -13 5 -11 0 -14 -3 -6 -6z"/>
<path d="M2018 2833 c7 -3 16 -2 19 1 4 3 -2 6 -13 5 -11 0 -14 -3 -6 -6z"/>
<path d="M2178 2803 c7 -3 16 -2 19 1 4 3 -2 6 -13 5 -11 0 -14 -3 -6 -6z"/>
</g>
</svg>
