<?xml version="1.0" standalone="no"?>
<!DOCTYPE svg PUBLIC "-//W3C//DTD SVG 20010904//EN"
 "http://www.w3.org/TR/2001/REC-SVG-20010904/DTD/svg10.dtd">
<svg version="1.0" xmlns="http://www.w3.org/2000/svg"
 width="40.000000pt" height="40.000000pt" viewBox="0 0 40.000000 40.000000"
 preserveAspectRatio="xMidYMid meet">

<g transform="translate(0.000000,40.000000) scale(0.100000,-0.100000)"
fill="#000000" stroke="none">
<path d="M0 200 l0 -200 200 0 200 0 0 200 0 200 -200 0 -200 0 0 -200z m238
41 c29 -1 32 -4 34 -33 l1 -33 4 33 c5 42 23 42 25 0 l1 -33 4 33 c3 25 9 32
26 32 18 0 19 -2 7 -11 -12 -9 -13 -12 -1 -16 11 -5 11 -7 0 -14 -12 -8 -11
-11 1 -19 19 -12 22 -12 -85 -15 -75 -2 -91 1 -97 14 -6 14 -7 14 -7 -1 -1
-20 -18 -23 -41 -8 -9 5 -19 5 -27 -1 -19 -16 -33 -1 -33 36 0 31 3 34 33 37
17 2 52 2 77 1 25 -1 60 -2 78 -2z"/>
<path d="M190 209 c0 -11 4 -18 10 -14 5 3 7 12 3 20 -7 21 -13 19 -13 -6z"/>
<path d="M230 220 c0 -5 5 -10 10 -10 6 0 10 5 10 10 0 6 -4 10 -10 10 -5 0
-10 -4 -10 -10z"/>
<path d="M112 200 c0 -14 2 -19 5 -12 2 6 2 18 0 25 -3 6 -5 1 -5 -13z"/>
<path d="M230 190 c0 -5 5 -10 10 -10 6 0 10 5 10 10 0 6 -4 10 -10 10 -5 0
-10 -4 -10 -10z"/>
</g>
</svg>
