<?xml version="1.0" standalone="no"?>
<!DOCTYPE svg PUBLIC "-//W3C//DTD SVG 20010904//EN"
 "http://www.w3.org/TR/2001/REC-SVG-20010904/DTD/svg10.dtd">
<svg version="1.0" xmlns="http://www.w3.org/2000/svg"
 width="40.000000pt" height="40.000000pt" viewBox="0 0 40.000000 40.000000"
 preserveAspectRatio="xMidYMid meet">

<g transform="translate(0.000000,40.000000) scale(0.100000,-0.100000)"
fill="#000000" stroke="none">
<path d="M0 200 l0 -200 200 0 200 0 0 200 0 200 -200 0 -200 0 0 -200z m153
173 c-7 -2 -19 -2 -25 0 -7 3 -2 5 12 5 14 0 19 -2 13 -5z m-20 -30 c19 -9 41
-13 63 -8 39 7 45 -1 12 -16 -23 -9 -23 -10 -1 -5 26 5 33 -10 32 -67 0 -34
-6 -46 -28 -64 l-28 -22 -11 24 c-8 17 -20 25 -38 25 -23 0 -25 3 -20 25 4 16
2 25 -6 25 -18 0 -78 70 -78 92 0 18 4 19 37 13 21 -4 50 -13 66 -22z m112 11
c33 -15 75 -64 56 -64 -6 0 -15 9 -21 20 -6 11 -15 20 -21 20 -6 0 -22 9 -36
20 -31 24 -23 26 22 4z m100 -44 c-10 -11 -19 -19 -19 -18 -1 2 -8 11 -15 21
-12 15 -10 17 19 17 32 0 33 0 15 -20z m5 -45 c9 -11 9 -22 0 -50 -9 -28 -17
-35 -37 -35 -21 0 -24 2 -13 15 8 9 9 15 2 15 -6 0 -14 -4 -17 -10 -3 -5 -13
-10 -21 -10 -16 0 -20 60 -4 76 15 15 77 15 90 -1z m-230 -75 c0 -5 -4 -10
-10 -10 -5 0 -10 -4 -10 -9 0 -11 19 -9 38 3 10 6 13 1 10 -20 -2 -17 4 -35
12 -44 13 -12 13 -13 1 -5 -12 8 -13 6 -8 -7 3 -10 3 -18 -1 -18 -11 0 -49 29
-38 30 5 0 3 7 -4 15 -7 8 -17 12 -24 8 -6 -3 -8 -3 -4 2 4 4 3 17 -3 28 -7
12 -7 17 -1 13 5 -3 12 1 16 9 6 17 26 21 26 5z m128 -24 c6 -29 -14 -41 -33
-22 -14 13 -15 19 -4 32 15 18 33 13 37 -10z m42 -30 c0 -28 -20 -66 -34 -66
-7 0 -19 7 -26 15 -7 8 -16 13 -20 10 -4 -3 -13 2 -20 10 -11 13 -7 15 28 15
26 0 42 5 46 15 7 19 26 20 26 1z m54 5 c10 -15 -4 -39 -25 -44 -21 -6 -24 5
-9 34 11 20 25 25 34 10z"/>
<path d="M190 278 c0 -5 -4 -7 -9 -4 -5 3 -20 -3 -32 -14 -20 -16 -21 -19 -7
-20 9 0 20 5 23 10 3 6 17 10 31 10 13 0 24 6 24 13 0 8 -7 14 -15 14 -8 0
-15 -4 -15 -9z"/>
</g>
</svg>
