<?xml version="1.0" standalone="no"?>
<!DOCTYPE svg PUBLIC "-//W3C//DTD SVG 20010904//EN"
 "http://www.w3.org/TR/2001/REC-SVG-20010904/DTD/svg10.dtd">
<svg version="1.0" xmlns="http://www.w3.org/2000/svg"
 width="65.000000pt" height="65.000000pt" viewBox="0 0 65.000000 65.000000"
 preserveAspectRatio="xMidYMid meet">

<g transform="translate(0.000000,65.000000) scale(0.100000,-0.100000)"
fill="#000000" stroke="none">
<path d="M0 325 l0 -325 325 0 325 0 0 325 0 325 -325 0 -325 0 0 -325z m264
84 c3 -17 6 -46 6 -64 0 -45 41 -73 77 -54 29 16 30 16 38 92 6 52 9 57 31 57
23 0 24 -2 24 -74 l0 -74 -47 -41 c-27 -23 -56 -41 -67 -41 -10 0 -40 18 -67
41 l-49 41 0 74 c0 71 1 74 24 74 18 0 25 -7 30 -31z m76 -261 c0 -5 -7 -8
-15 -8 -15 0 -20 21 -8 33 7 7 23 -11 23 -25z"/>
</g>
</svg>
